<?xml version="1.0" encoding="utf-8"?>
<!-- Generator: Adobe Illustrator 23.0.6, SVG Export Plug-In . SVG Version: 6.00 Build 0)  -->
<svg version="1.1" id="Capa_1" xmlns="http://www.w3.org/2000/svg" xmlns:xlink="http://www.w3.org/1999/xlink" x="0px" y="0px"
	 viewBox="0 0 512 512" style="enable-background:new 0 0 512 512;" xml:space="preserve">
<style type="text/css">
	.st0{fill:#4A581A;}
</style>
<g>
	<g>
		<path class="st0" d="M84,410.9c15.2-15.2,18.8-25.7,23.1-38c4.8-13.7,10.2-29.3,30.2-49.3c20-20,35.6-25.4,49.3-30.2
			c9-3.1,17.1-6,26.7-13.2c-20.5-18.7-48.7-26.7-80.1-22.5c-31.4,4.2-62.4,20.1-87.2,45c-24.8,24.8-40.8,55.8-45,87.2
			c-3,22.9,0.4,44.2,9.8,62C24.3,441.6,35.7,437.6,46,434C58.3,429.7,68.8,426,84,410.9L84,410.9z"/>
		<path class="st0" d="M196.5,321.7c-12.2,4.3-22.8,8-38,23.1s-18.8,25.7-23.1,38c-4.8,13.7-10.2,29.3-30.2,49.3
			c-20,20-35.6,25.4-49.3,30.2c-9,3.1-17,6-26.7,13.2c16.9,15.5,39.2,23.6,64.1,23.6c5.2,0,10.5-0.4,16-1.1
			c31.4-4.2,62.4-20.1,87.2-45c24.8-24.8,40.8-55.8,45-87.2c3-22.9-0.4-44.2-9.8-62C218.2,314.1,206.9,318.1,196.5,321.7
			L196.5,321.7z"/>
	</g>
	<g>
		<path class="st0" d="M353.4,410.9c15.2-15.2,18.8-25.7,23.1-38c4.8-13.7,10.2-29.3,30.2-49.3c20-20,35.6-25.4,49.3-30.2
			c9-3.1,17.1-6,26.7-13.2c-20.5-18.7-48.7-26.7-80.1-22.5c-31.4,4.2-62.4,20.1-87.2,45c-24.8,24.8-40.8,55.8-45,87.2
			c-3,22.9,0.4,44.2,9.8,62c13.5-10.2,24.8-14.2,35.2-17.8C327.7,429.7,338.3,426,353.4,410.9L353.4,410.9z"/>
		<path class="st0" d="M466,321.7c-12.2,4.3-22.8,8-38,23.1s-18.8,25.7-23.1,38c-4.8,13.7-10.2,29.3-30.2,49.3
			c-20,20-35.6,25.4-49.3,30.2c-9,3.1-17,6-26.7,13.2c16.9,15.5,39.2,23.6,64.1,23.6c5.2,0,10.5-0.4,16-1.1
			c31.4-4.2,62.4-20.1,87.2-45c24.8-24.8,40.8-55.8,45-87.2c3-22.9-0.4-44.2-9.8-62C487.7,314.1,476.3,318.1,466,321.7z"/>
	</g>
	<g>
		<path class="st0" d="M269.6,167.2c15.2-15.2,18.8-25.7,23.1-38c4.8-13.7,10.2-29.3,30.2-49.3c20-20,35.6-25.4,49.3-30.2
			c9-3.1,17.1-6,26.7-13.2c-20.5-18.7-48.7-26.7-80.1-22.5c-31.4,4.2-62.4,20.1-87.2,45c-24.8,24.8-40.8,55.8-45,87.2
			c-3,22.9,0.4,44.2,9.8,62c13.5-10.2,24.8-14.2,35.2-17.8C243.9,186,254.5,182.3,269.6,167.2L269.6,167.2z"/>
		<path class="st0" d="M382.2,78c-12.2,4.3-22.8,8-38,23.1s-18.8,25.7-23.1,38c-4.8,13.7-10.2,29.3-30.2,49.3
			c-20,20-35.6,25.4-49.3,30.2c-9,3.1-17.1,6-26.7,13.2c16.9,15.5,39.2,23.6,64.1,23.6c5.2,0,10.5-0.4,16-1.1
			c31.4-4.2,62.4-20.1,87.2-45c24.8-24.8,40.8-55.8,45-87.2c3-22.9-0.4-44.2-9.8-62C403.9,70.4,392.5,74.4,382.2,78L382.2,78z"/>
	</g>
</g>
</svg>
