<?xml version="1.0" encoding="utf-8"?>
<!-- Generator: Adobe Illustrator 23.0.6, SVG Export Plug-In . SVG Version: 6.00 Build 0)  -->
<svg version="1.1" id="Capa_1" xmlns="http://www.w3.org/2000/svg" xmlns:xlink="http://www.w3.org/1999/xlink" x="0px" y="0px"
	 viewBox="0 0 512 512" style="enable-background:new 0 0 512 512;" xml:space="preserve">
<style type="text/css">
	.st0{fill:#ACA617;}
</style>
<g>
	<path class="st0" d="M492.3,274.7c0,0-220.6-23.4-236.4,186.4C240.2,251.3,19.6,274.7,19.6,274.7S-5.7,512,255.9,512
		C519.6,512,492.3,274.7,492.3,274.7z"/>
	<path class="st0" d="M249.4,343.2c2.3,3.5,4.5,7.1,6.6,10.8c2.1-3.7,4.3-7.3,6.6-10.8c17.9-27.4,42.1-49.7,71.8-66.2
		c40.7-22.5,84.5-30,115.8-32.2c-17.8-91.3-95.3-153.8-95.3-153.8s-96.7,78.1-98.8,187c-2.1-108.9-98.8-187-98.8-187
		s-77.5,62.6-95.3,153.9c31.2,2.2,75,9.7,115.6,32.2C207.3,293.5,231.5,315.7,249.4,343.2z"/>
	<path class="st0" d="M256,167.1c22.4-42.5,51.9-73.7,68.1-89C292.3,29.4,255.9,0,255.9,0s-36.4,29.4-68.1,78
		C204,93.3,233.5,124.5,256,167.1L256,167.1z"/>
</g>
</svg>
