<?xml version="1.0" encoding="utf-8"?>
<!-- Generator: Adobe Illustrator 23.0.6, SVG Export Plug-In . SVG Version: 6.00 Build 0)  -->
<svg version="1.1" id="Capa_1" xmlns="http://www.w3.org/2000/svg" xmlns:xlink="http://www.w3.org/1999/xlink" x="0px" y="0px"
	 viewBox="0 0 512 512" style="enable-background:new 0 0 512 512;" xml:space="preserve">
<style type="text/css">
	.st0{fill:#4A581A;}
</style>
<g>
	<path class="st0" d="M136,135v-30c0-41.4-33.6-75-75-75c-8.3,0-15,6.7-15,15v30c0,41.4,33.6,75,75,75C129.3,150,136,143.3,136,135z
		"/>
	<path class="st0" d="M451,210c-41.4,0-75,34.6-75,76v30c0,8.3,6.7,15,15,15c41.4,0,75-34.6,75-76v-30C466,216.7,459.3,210,451,210z
		"/>
	<path class="st0" d="M211,304.8v-98.5c6.4-8.1,10.6-17,12.9-26.2H108.1c2.3,9.3,6.5,18.2,12.9,26.2v98.5
		c-6.4,8.1-10.6,17-12.9,26.2h115.9C221.6,321.7,217.4,312.8,211,304.8z"/>
	<path class="st0" d="M166,105v30c0,5.3-1.1,10.3-2.8,15h60.7c-2.3-9.3-6.5-18.2-12.9-26.2V15c0-8.3-6.7-15-15-15h-60
		c-8.3,0-15,6.7-15,15v4.1C148.1,38.1,166,69.4,166,105z"/>
	<path class="st0" d="M136,512h60c8.3,0,15-6.7,15-15V387.2c6.4-8.1,10.6-17,12.9-26.2H108.1c2.3,9.3,6.5,18.2,12.9,26.2V497
		C121,505.3,127.7,512,136,512z"/>
	<path class="st0" d="M288.1,331h60.7c-1.7-4.7-2.8-9.7-2.8-15v-30c0-38.7,21.2-73.1,52.4-91.4c2.5-4.7,4.3-9.6,5.5-14.6H288.1
		c2.3,9.3,6.5,18.2,12.9,26.2v98.5C294.6,312.8,290.4,321.7,288.1,331z"/>
	<path class="st0" d="M301,387.2V497c0,8.3,6.7,15,15,15h60c8.3,0,15-6.7,15-15V387.2c6.4-8.1,10.6-17,12.9-26.2H288.1
		C290.4,370.3,294.6,379.2,301,387.2z"/>
	<path class="st0" d="M391,123.8V15c0-8.3-6.7-15-15-15h-60c-8.3,0-15,6.7-15,15v108.8c-6.4,8-10.6,16.9-12.9,26.2h115.9
		C401.6,140.7,397.4,131.8,391,123.8z"/>
</g>
</svg>
